<?xml version="1.0" encoding="utf-8"?>
<!-- Generator: Adobe Illustrator 28.4.1, SVG Export Plug-In . SVG Version: 6.00 Build 0)  -->
<svg version="1.1" id="Layer_1" xmlns="http://www.w3.org/2000/svg" xmlns:xlink="http://www.w3.org/1999/xlink" x="0px" y="0px"
	 viewBox="0 0 131 35" enable-background="new 0 0 131 35" xml:space="preserve">
<path fill="#166BA2" d="M50.3,8c-0.1,0.6-0.3,1.3-0.5,2c-0.2,0.7-0.3,1.5-0.5,2.3c-0.2,0.8-0.4,1.6-0.6,2.3
	c-0.2,0.8-0.4,1.5-0.6,2.3c-0.2-0.8-0.4-1.5-0.6-2.3c-0.2-0.8-0.4-1.6-0.6-2.3c-0.2-0.8-0.4-1.5-0.5-2.2c-0.2-0.7-0.3-1.4-0.5-2
	h-2.8c-0.1,0.6-0.3,1.3-0.5,2c-0.2,0.7-0.4,1.5-0.6,2.2c-0.2,0.8-0.4,1.5-0.6,2.3c-0.2,0.8-0.4,1.6-0.7,2.3
	c-0.2-0.7-0.4-1.5-0.6-2.3c-0.2-0.8-0.4-1.6-0.6-2.3c-0.2-0.8-0.4-1.5-0.5-2.3c-0.2-0.7-0.3-1.4-0.5-2h-4.1c0.4,1.3,0.8,2.7,1.2,4
	c0.4,1.3,0.8,2.6,1.2,3.8c0.4,1.2,0.8,2.3,1.1,3.3c0.4,1,0.7,1.9,1,2.6h3c0.4-1.3,0.8-2.6,1.2-3.9c0.4-1.3,0.8-2.6,1.1-3.9
	c0.4,1.3,0.7,2.6,1.1,3.9c0.4,1.3,0.8,2.6,1.3,3.9h3c0.3-0.7,0.7-1.6,1-2.6s0.8-2.1,1.1-3.3c0.4-1.2,0.8-2.4,1.2-3.8
	c0.4-1.3,0.8-2.7,1.2-4H50.3z"/>
<path fill="#166BA2" d="M66.8,11.9c-0.3-0.9-0.8-1.6-1.4-2.2c-0.6-0.6-1.3-1.1-2.1-1.5c-0.8-0.3-1.7-0.5-2.7-0.5
	c-1,0-1.9,0.2-2.7,0.5c-0.8,0.3-1.5,0.8-2.1,1.5c-0.6,0.6-1.1,1.4-1.4,2.2c-0.3,0.9-0.5,1.9-0.5,2.9c0,1.1,0.2,2,0.5,2.9
	c0.3,0.9,0.8,1.6,1.4,2.3c0.6,0.6,1.3,1.1,2.1,1.5c0.8,0.3,1.7,0.5,2.7,0.5c1,0,2-0.2,2.8-0.5c0.8-0.4,1.5-0.8,2.1-1.5
	c0.6-0.6,1-1.4,1.3-2.3s0.5-1.9,0.5-2.9C67.3,13.8,67.1,12.8,66.8,11.9z M62.6,17.7c-0.5,0.7-1.1,1.1-2,1.1c-0.9,0-1.6-0.4-2-1.1
	C58,17,57.8,16,57.8,14.8c0-1.2,0.2-2.1,0.7-2.8c0.5-0.7,1.2-1,2-1c0.9,0,1.6,0.3,2,1c0.5,0.7,0.7,1.6,0.7,2.8
	C63.3,16,63.1,17,62.6,17.7z"/>
<path fill="#166BA2" d="M87.3,11.4c-0.2-0.8-0.4-1.4-0.8-2c-0.4-0.6-1-1-1.7-1.3c-0.7-0.3-1.6-0.4-2.7-0.4c-0.6,0-1.3,0.1-2,0.3
	c-0.7,0.2-1.4,0.5-1.9,0.9c-0.4-0.3-0.9-0.6-1.5-0.9c-0.6-0.3-1.4-0.4-2.4-0.4c-0.5,0-1,0-1.5,0.1c-0.5,0-1,0.1-1.5,0.2
	c-0.5,0.1-1,0.2-1.4,0.2c-0.4,0.1-0.8,0.2-1.2,0.3v13.2h3.9V11.1c0.2,0,0.5-0.1,0.8-0.1c0.3,0,0.5,0,0.8,0c0.8,0,1.3,0.3,1.7,0.8
	c0.3,0.5,0.5,1.4,0.5,2.7v7.2H80v-7.4c0-0.5,0-1,0-1.4c0-0.5-0.1-0.9-0.2-1.3c0.2-0.2,0.5-0.3,0.9-0.4c0.4-0.1,0.7-0.2,0.9-0.2
	c0.8,0,1.3,0.3,1.7,0.8c0.3,0.5,0.5,1.4,0.5,2.7v7.2h3.9V14C87.5,13,87.5,12.2,87.3,11.4z"/>
<path fill="#166BA2" d="M100,9.4c-1.1-1.2-2.7-1.8-4.6-1.8c-0.8,0-1.6,0.2-2.4,0.5c-0.8,0.3-1.5,0.8-2.1,1.4
	c-0.6,0.6-1.1,1.4-1.5,2.3c-0.4,0.9-0.6,2-0.6,3.2c0,1,0.1,1.9,0.4,2.8c0.3,0.9,0.7,1.6,1.3,2.2c0.6,0.6,1.3,1.1,2.3,1.5
	c0.9,0.4,2,0.5,3.2,0.5c0.2,0,0.4,0,0.7,0c-0.4-0.4-0.6-0.9-0.6-1.5c0-0.6,0.2-1.1,0.7-1.5c0.1-0.1,0.3-0.2,0.5-0.3
	c-0.2,0-0.4,0-0.6,0c-1.1,0-2-0.2-2.6-0.7c-0.7-0.5-1-1.1-1.1-1.9h8.8c0-0.2,0-0.4,0-0.7c0-0.3,0-0.5,0-0.7
	C101.7,12.4,101.1,10.6,100,9.4z M92.8,13.5c0-0.3,0.1-0.7,0.2-1s0.3-0.6,0.5-0.8c0.2-0.2,0.5-0.4,0.8-0.6c0.3-0.2,0.7-0.2,1.1-0.2
	c0.5,0,0.8,0.1,1.1,0.2c0.3,0.2,0.5,0.4,0.8,0.6s0.3,0.5,0.4,0.8c0.1,0.3,0.2,0.6,0.2,1H92.8z M98.7,18.5c0.4,0.1,0.7,0.2,1,0.5
	c0.4,0.4,0.6,0.9,0.6,1.5c0,0.3-0.1,0.7-0.2,0.9c0.3-0.1,0.6-0.2,0.8-0.3l-0.5-3.1C99.9,18.2,99.3,18.4,98.7,18.5z M98.2,19.1
	c-0.4,0-0.8,0.1-1,0.4c-0.3,0.3-0.4,0.6-0.4,1.1c0,0.5,0.1,0.8,0.4,1.1c0.2,0.1,0.3,0.2,0.5,0.3c0.4,0,0.8-0.1,1.2-0.2
	c0.1,0,0.2,0,0.3-0.1c0,0,0.1,0,0.1-0.1c0.3-0.3,0.4-0.6,0.4-1.1c0-0.5-0.1-0.8-0.4-1.1S98.6,19.1,98.2,19.1z"/>
<path fill="#166BA2" d="M114.6,11.4c-0.2-0.8-0.5-1.4-1-2c-0.5-0.6-1.1-1-1.8-1.3c-0.8-0.3-1.7-0.4-2.9-0.4c-1.1,0-2.2,0.1-3.3,0.2
	c-1,0.2-1.9,0.3-2.5,0.5v13.2h3.9V11.1c0.2,0,0.5-0.1,0.8-0.1c0.3,0,0.6,0,0.9,0c0.9,0,1.5,0.3,1.8,0.8c0.3,0.5,0.5,1.4,0.5,2.7v7.2
	h3.9V14C114.9,13,114.8,12.2,114.6,11.4z"/>
<path fill="#166BA2" d="M119.8,2.5c0-0.3,0-0.5-0.1-0.8H116c0,0.1,0,0.3,0,0.4c0,0.1,0,0.3,0,0.5c0,0.1,0,0.3,0,0.4v0.2
	c0,0.8-0.1,1.7-0.3,2.7c-0.2,0.9-0.5,1.8-0.8,2.5l2.7,0.6c0.6-0.7,1.1-1.6,1.5-2.7c0.4-1.1,0.6-2.2,0.6-3.3
	C119.9,3,119.8,2.8,119.8,2.5z"/>
<path fill="#166BA2" d="M128.7,16.5c-0.1-0.4-0.4-0.8-0.7-1.2c-0.3-0.4-0.8-0.7-1.3-1c-0.5-0.3-1.2-0.6-2.1-0.9
	c-0.4-0.1-0.8-0.3-1-0.4c-0.3-0.1-0.5-0.2-0.6-0.4c-0.1-0.1-0.3-0.2-0.3-0.3s-0.1-0.3-0.1-0.4c0-0.7,0.6-1,1.8-1
	c0.7,0,1.2,0.1,1.8,0.2c0.5,0.1,1,0.3,1.5,0.4l0.7-3c-0.5-0.2-1-0.3-1.8-0.5c-0.8-0.2-1.6-0.2-2.4-0.2c-1.7,0-3,0.4-3.9,1.1
	c-1,0.8-1.4,1.8-1.4,3c0,0.7,0.1,1.2,0.3,1.7c0.2,0.5,0.5,0.9,0.8,1.2c0.3,0.3,0.8,0.6,1.3,0.9c0.5,0.2,1,0.5,1.6,0.7
	c0.8,0.3,1.4,0.6,1.7,0.8s0.6,0.5,0.6,0.8c0,0.4-0.1,0.7-0.4,0.8c-0.3,0.1-0.8,0.2-1.5,0.2c-0.7,0-1.4-0.1-2-0.2
	c-0.7-0.1-1.4-0.3-2-0.6l-0.7,3.1c0.3,0.1,0.9,0.3,1.7,0.5c0.8,0.2,1.8,0.3,3,0.3c1.9,0,3.3-0.3,4.3-1c1-0.7,1.5-1.7,1.5-3
	C128.9,17.4,128.8,16.9,128.7,16.5z"/>
<path fill="#24B7D8" d="M35.2,27.5c0-0.6,0.1-1.2,0.3-1.8c0.2-0.6,0.5-1.1,0.9-1.5c0.4-0.4,0.9-0.8,1.4-1c0.6-0.2,1.2-0.4,1.9-0.4
	c0.5,0,0.9,0,1.3,0.1c0.4,0.1,0.8,0.2,1.1,0.4l-0.5,2c-0.2-0.1-0.5-0.2-0.8-0.2C40.7,25.1,40.3,25,40,25c-0.7,0-1.3,0.2-1.7,0.7
	s-0.5,1.1-0.5,1.8c0,0.8,0.2,1.4,0.5,1.8s0.9,0.7,1.8,0.7c0.3,0,0.6,0,1-0.1c0.3-0.1,0.7-0.1,1-0.3l0.4,2c-0.3,0.1-0.7,0.2-1.1,0.3
	s-0.9,0.1-1.4,0.1c-0.8,0-1.5-0.1-2.1-0.4s-1.1-0.6-1.4-1s-0.6-0.9-0.8-1.5S35.2,28.2,35.2,27.5z"/>
<path fill="#24B7D8" d="M53.1,27.5c0,0.7-0.1,1.3-0.3,1.9c-0.2,0.6-0.5,1.1-0.9,1.5c-0.4,0.4-0.8,0.7-1.4,0.9
	c-0.5,0.2-1.1,0.3-1.8,0.3c-0.6,0-1.2-0.1-1.8-0.3s-1-0.5-1.4-0.9c-0.4-0.4-0.7-0.9-0.9-1.5c-0.2-0.6-0.3-1.2-0.3-1.9
	c0-0.7,0.1-1.3,0.3-1.9c0.2-0.6,0.5-1.1,0.9-1.5c0.4-0.4,0.8-0.7,1.4-0.9s1.1-0.3,1.7-0.3c0.6,0,1.2,0.1,1.8,0.3
	c0.5,0.2,1,0.5,1.4,0.9c0.4,0.4,0.7,0.9,0.9,1.5C53,26.2,53.1,26.8,53.1,27.5z M50.6,27.5c0-0.8-0.2-1.4-0.5-1.8
	c-0.3-0.4-0.7-0.7-1.3-0.7s-1,0.2-1.3,0.7s-0.5,1-0.5,1.8s0.2,1.4,0.5,1.8s0.8,0.7,1.3,0.7s1-0.2,1.3-0.7
	C50.4,28.9,50.6,28.3,50.6,27.5z"/>
<path fill="#24B7D8" d="M56.3,23.4c0.4-0.1,1-0.2,1.6-0.3c0.7-0.1,1.4-0.2,2.1-0.2c0.7,0,1.4,0.1,1.9,0.3c0.5,0.2,0.9,0.5,1.2,0.8
	c0.3,0.4,0.5,0.8,0.6,1.3c0.1,0.5,0.2,1,0.2,1.6v5h-2.5v-4.7c0-0.8-0.1-1.4-0.3-1.7c-0.2-0.3-0.6-0.5-1.2-0.5c-0.2,0-0.4,0-0.6,0
	c-0.2,0-0.4,0-0.5,0.1v6.8h-2.5V23.4z"/>
<path fill="#24B7D8" d="M70,30.1c0.5,0,0.8,0,1-0.1c0.2-0.1,0.3-0.3,0.3-0.5c0-0.2-0.1-0.4-0.4-0.5c-0.2-0.2-0.6-0.3-1.1-0.5
	c-0.4-0.1-0.7-0.3-1.1-0.5c-0.3-0.2-0.6-0.3-0.8-0.6c-0.2-0.2-0.4-0.5-0.5-0.8c-0.1-0.3-0.2-0.7-0.2-1.1c0-0.8,0.3-1.5,0.9-2
	c0.6-0.5,1.5-0.7,2.5-0.7c0.5,0,1.1,0,1.5,0.1c0.5,0.1,0.9,0.2,1.2,0.3l-0.4,1.9c-0.3-0.1-0.6-0.2-0.9-0.3c-0.3-0.1-0.7-0.1-1.2-0.1
	c-0.8,0-1.2,0.2-1.2,0.7c0,0.1,0,0.2,0.1,0.3s0.1,0.2,0.2,0.2c0.1,0.1,0.2,0.2,0.4,0.2c0.2,0.1,0.4,0.2,0.7,0.3
	c0.5,0.2,1,0.4,1.4,0.6s0.6,0.4,0.8,0.6s0.4,0.5,0.4,0.8c0.1,0.3,0.1,0.6,0.1,1c0,0.9-0.3,1.5-1,2c-0.7,0.4-1.6,0.7-2.8,0.7
	c-0.8,0-1.4-0.1-2-0.2c-0.5-0.1-0.9-0.2-1.1-0.3l0.4-2c0.4,0.2,0.9,0.3,1.3,0.4C69.1,30.1,69.5,30.1,70,30.1z"/>
<path fill="#24B7D8" d="M85.1,27.5c0,0.7-0.1,1.3-0.3,1.9c-0.2,0.6-0.5,1.1-0.9,1.5c-0.4,0.4-0.8,0.7-1.4,0.9
	c-0.5,0.2-1.1,0.3-1.8,0.3c-0.6,0-1.2-0.1-1.8-0.3c-0.5-0.2-1-0.5-1.4-0.9c-0.4-0.4-0.7-0.9-0.9-1.5c-0.2-0.6-0.3-1.2-0.3-1.9
	c0-0.7,0.1-1.3,0.3-1.9c0.2-0.6,0.5-1.1,0.9-1.5c0.4-0.4,0.8-0.7,1.4-0.9s1.1-0.3,1.7-0.3c0.6,0,1.2,0.1,1.8,0.3
	c0.5,0.2,1,0.5,1.4,0.9c0.4,0.4,0.7,0.9,0.9,1.5C85,26.2,85.1,26.8,85.1,27.5z M82.5,27.5c0-0.8-0.2-1.4-0.5-1.8S81.3,25,80.8,25
	c-0.6,0-1,0.2-1.3,0.7s-0.5,1-0.5,1.8s0.2,1.4,0.5,1.8s0.8,0.7,1.3,0.7c0.6,0,1-0.2,1.3-0.7S82.5,28.3,82.5,27.5z"/>
<path fill="#24B7D8" d="M88.2,20.9l2.5-0.4v2.6h3v2.1h-3v3.1c0,0.5,0.1,0.9,0.3,1.3s0.6,0.5,1.1,0.5c0.3,0,0.5,0,0.8-0.1
	c0.3-0.1,0.5-0.1,0.8-0.2l0.4,1.9c-0.3,0.1-0.6,0.2-1,0.3c-0.4,0.1-0.8,0.1-1.4,0.1c-0.7,0-1.2-0.1-1.7-0.3s-0.8-0.4-1.1-0.8
	s-0.5-0.7-0.6-1.2c-0.1-0.5-0.2-1-0.2-1.6V20.9z"/>
<path fill="#24B7D8" d="M99.7,20.6c0,0.5-0.1,0.8-0.4,1.1c-0.3,0.3-0.6,0.4-1,0.4c-0.4,0-0.8-0.1-1-0.4c-0.3-0.3-0.4-0.6-0.4-1.1
	s0.1-0.8,0.4-1.1s0.6-0.4,1-0.4c0.4,0,0.8,0.1,1,0.4S99.7,20.1,99.7,20.6z M99.5,31.9H97v-8.8h2.5V31.9z"/>
<path fill="#24B7D8" d="M110.6,31.6c-0.4,0.1-1,0.2-1.6,0.3s-1.4,0.2-2.1,0.2c-0.8,0-1.4-0.1-1.9-0.3s-0.9-0.5-1.2-0.8
	c-0.3-0.4-0.5-0.8-0.6-1.3c-0.1-0.5-0.2-1.1-0.2-1.7v-4.9h2.5v4.6c0,0.8,0.1,1.4,0.3,1.7c0.2,0.4,0.6,0.5,1.2,0.5c0.2,0,0.4,0,0.6,0
	s0.4,0,0.5-0.1v-6.8h2.5V31.6z"/>
<path fill="#24B7D8" d="M119,27.3c0-0.8-0.1-1.4-0.3-1.7s-0.6-0.5-1.1-0.5c-0.2,0-0.3,0-0.5,0s-0.3,0-0.5,0.1v6.8h-2.5v-8.5
	c0.2-0.1,0.5-0.1,0.7-0.2c0.3-0.1,0.6-0.1,0.9-0.2s0.6-0.1,1-0.1c0.3,0,0.7,0,1,0c0.6,0,1.2,0.1,1.6,0.2s0.7,0.4,1,0.6
	c0.4-0.3,0.8-0.5,1.2-0.6c0.5-0.1,0.9-0.2,1.3-0.2c0.7,0,1.3,0.1,1.7,0.3c0.5,0.2,0.8,0.5,1.1,0.8c0.3,0.4,0.5,0.8,0.6,1.3
	c0.1,0.5,0.2,1,0.2,1.6v5h-2.5v-4.7c0-0.8-0.1-1.4-0.3-1.7S123,25,122.5,25c-0.1,0-0.3,0-0.6,0.1c-0.2,0.1-0.4,0.2-0.6,0.3
	c0.1,0.3,0.1,0.5,0.2,0.8s0,0.6,0,0.9v4.8H119V27.3z"/>
<radialGradient id="SVGID_1_" cx="15.7587" cy="15.2502" r="14.0472" gradientUnits="userSpaceOnUse">
	<stop  offset="0" style="stop-color:#FFFFFF"/>
	<stop  offset="1" style="stop-color:#AAC7E5"/>
</radialGradient>
<path fill="url(#SVGID_1_)" d="M27.8,29.4h-24c-1.1,0-1.9-0.9-1.9-1.9V3c0-1.1,0.9-1.9,1.9-1.9h24c1.1,0,1.9,0.9,1.9,1.9v24.6
	C29.7,28.6,28.8,29.4,27.8,29.4z"/>
<path fill="#166BA2" d="M10,0.5c0.1,0,0.2,0.1,0.2,0.2c0,0.1-0.1,0.2-0.1,0.3C7.3,4.9,4.8,9,3.8,13.6c-0.4,1.7-0.5,3.6,0.3,5.2
	c0.4,0.9,1.2,1.6,2,2.2c0.4,0.2,0.8,0.4,1.2,0.5c0.5,0.1,1,0,1.5-0.2c0.9-0.3,1.7-0.8,2.4-1.5c0.1-0.1,0.3-0.3,0.3-0.4
	c0.1-0.2,0-0.4,0-0.6C10.8,14,13.2,8.4,16.9,5.4C17.1,5.2,17.4,5,17.7,5c0.5,0,0.9,0.4,0.9,0.9s0,0.9-0.2,1.4
	c-1.2,3.7-3,7.2-5.2,10.5c-0.1,0.2-0.2,0.4-0.3,0.6c-0.1,0.3,0,0.6,0.1,0.8c0.6,1.5,2,2.6,3.5,2.8c-0.1,0.3-0.3,0.6-0.4,1
	c-1.9,0-3.8-1.3-4.6-3c-0.8,1.3-2.2,2.2-3.6,2.5c-1.5,0.3-3.1-0.1-4.3-1.1c-1.2-0.9-1.9-2.3-2.2-3.7s-0.3-2.9,0-4.4
	C2.4,9.2,4.9,5.6,7.8,2.5C7.9,2.4,8,2.2,7.9,2C7.8,2,7.8,1.9,7.7,1.9C7.5,1.9,7.2,1.9,7,1.8C6.8,1.6,6.7,1.4,6.8,1.2
	c0.7,0.7,2,0.6,2.6-0.2c0.1-0.1,0.2-0.3,0.4-0.4C9.8,0.5,9.9,0.5,10,0.5z M16.9,7.7C16.8,7.7,16.8,7.7,16.9,7.7
	c-1.9,2.7-3.5,5.9-3.9,9.2c0,0.2,0,0.5,0.2,0.6c1.8-2.8,3.1-5.9,3.8-9.2C17,8.1,17,7.8,16.9,7.7z"/>
<path fill="#24B7D8" d="M23.3,34.4c-0.6-0.1-1.2-0.2-1.8-0.4c-3-1-5.2-3.9-5.6-7.1c-0.7-5.5,3.5-10.3,8.5-11.8
	c0.1,0,0.2-0.1,0.3-0.1c0.1,0,0.2,0,0.2,0c0.2,0.1,0.2,0.3,0.1,0.5c-0.1,0.1-0.3,0.2-0.5,0.3C23.7,16,23,16.5,22.4,17
	c-1.7,1.5-2.8,3.5-3.3,5.6s-0.2,4.4,0.6,6.5c0.5,1.2,1.2,2.3,2.2,3c1,0.7,2.3,1,3.5,1.2c0.8,0.1,1.6,0.1,2.3-0.2
	c0.7-0.3,1.4-0.9,1.5-1.7c0.3,0.4,0.3,1,0,1.4c-0.3,0.4-0.8,0.6-1.2,0.8C26.5,34.3,24.9,34.6,23.3,34.4z"/>
<path fill="#24B7D8" d="M25.8,15.1c0.3,0,0.5,0.3,0.6,0.5c0.1,0.3,0.1,0.6,0.1,0.8c0,0.1,0,0.3-0.1,0.4c-0.1,0.2-0.5,0.3-0.7,0.2
	c0,0-0.1,0-0.1,0c0,0,0,0,0-0.1c0-0.2,0-0.5,0-0.7c0-0.1,0.1-0.3,0.2-0.4C25.8,15.6,25.7,15.4,25.8,15.1z"/>
<path fill="#166BA2" d="M26.8,10c0,0.7-0.1,1.4-0.2,2c-0.2,1.7-0.5,3.4-1.2,4.9c-1.1,2.7-3.5,5-6.4,5.6c0.1,0,0.2-0.7,0.3-0.8
	c0.1-0.1,0.4-0.2,0.6-0.2c0.5-0.2,1-0.6,1.5-1c1.5-1.3,2.6-3,3.2-4.9s0.9-3.9,0.7-5.8c0-0.1,0-0.2-0.1-0.3c-0.1-0.1-0.2-0.1-0.3-0.1
	c-0.2-0.1-0.4-0.3-0.4-0.5c0.7-0.4,1.3-0.9,1.8-1.5C26.7,8.3,26.8,9.1,26.8,10z"/>
</svg>
