<?xml version="1.0" encoding="utf-8"?>
<!-- Generator: Adobe Illustrator 28.4.1, SVG Export Plug-In . SVG Version: 6.00 Build 0)  -->
<svg version="1.1" id="Layer_1" xmlns="http://www.w3.org/2000/svg" xmlns:xlink="http://www.w3.org/1999/xlink" x="0px" y="0px"
	 viewBox="0 0 31 35" enable-background="new 0 0 31 35" xml:space="preserve">
<radialGradient id="SVGID_1_" cx="15.6491" cy="15.2783" r="14.4074" gradientUnits="userSpaceOnUse">
	<stop  offset="0" style="stop-color:#FFFFFF"/>
	<stop  offset="1" style="stop-color:#AAC7E5"/>
</radialGradient>
<path fill="url(#SVGID_1_)" d="M28.009,29.828H3.289c-1.051,0-1.904-0.852-1.904-1.904V2.632c0-1.051,0.852-1.904,1.904-1.904h24.72
	c1.051,0,1.904,0.852,1.904,1.904v25.293C29.913,28.976,29.06,29.828,28.009,29.828z"/>
<path fill="#24B7D8" d="M23.378,34.96c-0.625-0.059-1.242-0.185-1.84-0.385c-3.09-1.03-5.357-4.016-5.781-7.246
	c-0.735-5.608,3.565-10.595,8.722-12.154c0.107-0.032,0.215-0.063,0.322-0.093c0.077-0.021,0.16-0.042,0.236-0.019
	c0.186,0.056,0.206,0.337,0.081,0.486s-0.327,0.203-0.512,0.262c-0.806,0.254-1.523,0.737-2.158,1.294
	c-1.702,1.491-2.881,3.556-3.35,5.77c-0.47,2.213-0.236,4.563,0.612,6.661c0.488,1.207,1.201,2.362,2.256,3.124
	c1.033,0.746,2.317,1.062,3.585,1.19c0.803,0.081,1.636,0.089,2.389-0.2c0.753-0.29,1.413-0.931,1.528-1.729
	c0.331,0.383,0.258,0.996-0.041,1.404s-0.77,0.651-1.236,0.848C26.681,34.815,25.005,35.114,23.378,34.96z"/>
<path fill="#24B7D8" d="M25.92,15.119c0.286-0.014,0.523,0.276,0.631,0.526c0.117,0.271,0.138,0.572,0.152,0.866
	c0.007,0.152,0.01,0.313-0.069,0.443c-0.143,0.239-0.475,0.26-0.753,0.253c-0.045-0.001-0.095-0.005-0.122-0.041
	c-0.017-0.022-0.02-0.051-0.023-0.079c-0.023-0.234-0.046-0.476,0.021-0.701c0.044-0.147,0.125-0.282,0.158-0.431
	C25.976,15.678,25.87,15.395,25.92,15.119z"/>
<path fill="#166BA2" d="M9.775,0.184c0.094,0.024,0.173,0.085,0.192,0.18C9.992,0.484,9.915,0.6,9.843,0.699
	C6.976,4.615,4.389,8.87,3.347,13.61c-0.387,1.761-0.536,3.684,0.272,5.297c0.457,0.912,1.198,1.666,2.06,2.212
	c0.38,0.241,0.794,0.447,1.24,0.511c0.521,0.075,1.052-0.049,1.547-0.227c0.901-0.324,1.735-0.833,2.434-1.487
	c0.133-0.125,0.265-0.26,0.329-0.431c0.079-0.21,0.044-0.443,0.014-0.665c-0.65-4.864,1.741-10.57,5.537-13.66
	c0.255-0.207,0.543-0.414,0.871-0.419c0.484-0.009,0.879,0.443,0.973,0.918s-0.04,0.963-0.184,1.426
	c-1.191,3.842-3.105,7.428-5.308,10.794c-0.116,0.178-0.236,0.36-0.281,0.567c-0.062,0.279,0.017,0.569,0.12,0.836
	c0.586,1.51,2.033,2.649,3.638,2.863c-0.154,0.326-0.308,0.651-0.461,0.977c-1.978-0.023-3.888-1.294-4.673-3.11
	c-0.815,1.317-2.207,2.262-3.731,2.535s-3.158-0.13-4.379-1.082c-1.185-0.923-1.957-2.313-2.292-3.777s-0.257-2.999,0.042-4.471
	C1.968,9.031,4.542,5.393,7.439,2.251c0.135-0.147,0.276-0.37,0.15-0.524C7.536,1.662,7.451,1.635,7.37,1.617
	C7.141,1.564,6.899,1.545,6.693,1.433c-0.206-0.112-0.366-0.362-0.279-0.58c0.753,0.677,2.074,0.565,2.702-0.23
	c0.117-0.149,0.219-0.321,0.386-0.41C9.583,0.17,9.686,0.161,9.775,0.184z M16.771,7.538c-0.004-0.002-0.007-0.004-0.011-0.006
	c-1.933,2.773-3.538,6.007-3.956,9.393c-0.029,0.239-0.004,0.555,0.229,0.616c1.82-2.878,3.131-6.078,3.853-9.406
	C16.932,7.923,16.951,7.651,16.771,7.538z"/>
<path fill="#166BA2" d="M26.985,9.844c-0.014,0.696-0.103,1.4-0.201,2.086c-0.246,1.722-0.536,3.455-1.203,5.062
	c-1.162,2.801-3.597,5.154-6.566,5.774c0.119-0.025,0.209-0.708,0.314-0.815c0.139-0.141,0.43-0.162,0.615-0.238
	c0.557-0.23,1.052-0.593,1.504-0.988c1.519-1.328,2.636-3.088,3.302-4.993s0.889-3.95,0.765-5.964
	c-0.006-0.099-0.018-0.208-0.092-0.274c-0.077-0.069-0.192-0.064-0.293-0.088c-0.221-0.052-0.39-0.27-0.385-0.497
	c0.706-0.37,1.337-0.88,1.848-1.491C26.91,8.187,27.002,9.01,26.985,9.844z"/>
</svg>
